<svg xmlns="http://www.w3.org/2000/svg" viewBox="0 0 589.42 143.96"><title>Asset 2</title><g id="Layer_2" data-name="Layer 2"><g id="Layer_1-2" data-name="Layer 1"><path d="M15.37,10.58a4.11,4.11,0,0,0,.14-1.05Q16.77.26,22.9.26a11.21,11.21,0,0,1,2,.18Q29,1.42,29,8.16q0,1.68-.35,6.09Q35.28,1.68,47.53,1.59a13.21,13.21,0,0,1,7.91,2.65,12.41,12.41,0,0,1,5.3,10.41q0,1.06-.09,5.12-.09,8.94-.09,14.33,0,18,1.06,21.15.26.8.53,1.68,2.56,6.64,7,6.64A10.27,10.27,0,0,0,71,63.39q2.56-.62,7.49-4.16t7.76-3.54a4,4,0,0,1,2.2.7,5.62,5.62,0,0,1,2.73,5.17,3.83,3.83,0,0,1-.09.7q-.62,4.2-7.32,8.67-8.2,5.52-16.31,5.52a17.54,17.54,0,0,1-11.2-3.61q-9.43-7.57-9.43-33.18,0-1.5.09-4.84.18-4.87.18-8.41Q47,17,45,16.57a2.83,2.83,0,0,0-.87.18q-5,1.68-12.59,19.86Q24.93,52.4,23,63.26l-.79,4.67q-.51,3.09-.93,6.35-4.63,30.59-6.21,51.23a13.06,13.06,0,0,1-1.82,5.72q-2.64,4.32-6.64,4.32A5.9,5.9,0,0,1,3,134.32a8.32,8.32,0,0,1-3-6.93Q0,126.15,15.37,10.58Z"/><path d="M78.81,48.57a60.58,60.58,0,0,1,.35-6.35,62.14,62.14,0,0,1,9.52-26.89Q98,1.06,111.17,1.06A21.1,21.1,0,0,1,121,3.26a6.22,6.22,0,0,1,4.85-2.2,5.44,5.44,0,0,1,2.2.26q3.79,1.24,3.79,7.49,0,2.56-.88,11-2.73,25-2.73,31.12a17.43,17.43,0,0,0,1.68,7.58q2.47,5.29,6.52,5.29a8.51,8.51,0,0,0,1.68-.18q2.64-.53,7.58-4.06t7.76-3.53a4.42,4.42,0,0,1,2.38.79,5.43,5.43,0,0,1,2.56,4.67q-.26,4.58-7,9.52a29.07,29.07,0,0,1-17,5.64q-11.11-.09-16.4-11.2a32.91,32.91,0,0,1-2.82,3q-8.73,8.2-17.72,8.2a16.59,16.59,0,0,1-9.79-2.91Q78.81,67.27,78.81,48.57Zm38.79-29,.62-6a9,9,0,0,0-4.06-1,12.8,12.8,0,0,0-3.26.44q-8.2,2.29-13.84,15.16A57.68,57.68,0,0,0,92,51.4v.88Q92.3,63,97.5,63q2.73-.09,6.7-3a26,26,0,0,0,5.91-5.47q1.14-1.67,3.09-9.79A185,185,0,0,0,117.6,19.57Z"/><path d="M167.59,65.74a14.14,14.14,0,0,1-1.82,5.65q-2.51,4.26-6.32,4.25a4.76,4.76,0,0,1-1.82-.35q-4.33-1.85-4.33-9.34l7.43-55.63a22.53,22.53,0,0,1,.52-3Q162.74,0,168,0a8.91,8.91,0,0,1,2.18.26q3.76,1.06,3.76,7.49,0,2.56-.27,5.82a4.13,4.13,0,0,1,.27-.44Q180.57,1.32,192.8,1.32a16.91,16.91,0,0,1,7.53,1.94q6,3.09,7.62,8.29Q214.31,2,225.51,1.94a13.51,13.51,0,0,1,8,2.65A12.22,12.22,0,0,1,238.91,15q0,4.24-.09,13-.18,9.64-.18,14.78,0,4,.18,6.9,1.06,13.89,8.46,13.89a10.27,10.27,0,0,0,1.85-.18q2.56-.62,7.49-4.16t7.76-3.54a4,4,0,0,1,2.2.7,5.62,5.62,0,0,1,2.73,5.17,3.83,3.83,0,0,1-.09.7q-.62,4.2-7.32,8.67-8.2,5.52-16.31,5.52a17.54,17.54,0,0,1-11.2-3.61Q225,65.25,225,39.64q0-1.5.09-4.84.18-4.87.18-8.41,0-9.29-2.12-9.47-1.76,0-4.14,2.74-6.17,7.17-13.22,26.46l-1.5,15.13a44,44,0,0,1-1.5,8.82Q200.91,76,195.71,76a5.84,5.84,0,0,1-2.65-.61q-3.79-1.75-3.79-7.28,0-5.35,2.47-19.22,3.35-19.2,3.35-26.28a13.54,13.54,0,0,0-.36-3.27,3.51,3.51,0,0,0-3.74-3,6.14,6.14,0,0,0-3.56,1.86q-6.59,6.19-14.6,28.85Q167.59,61.79,167.59,65.74Z"/><path d="M339.69.71q5.54.09,5.71,6.92a49.62,49.62,0,0,1-.69,5.76Q341.79,33.16,341.79,42q0,19.15,9.48,19.33a8.45,8.45,0,0,0,4-1.43q8-5.36,12.07-34.29a86.41,86.41,0,0,0,2.25-16.33q.09-.88.09-2l.21-.27q1.06-5.91,6.64-5.91a6.66,6.66,0,0,1,2.12.36q4,1.42,4,7.63,0,.71-.09,2v1l-9,65q21.27-16,25.07-19.26a11.57,11.57,0,0,1,6.8-2.5,4.88,4.88,0,0,1,2.38.69,5,5,0,0,1,2.56,4.39q-.09,4.05-4.85,8-8.9,7.56-34.37,27l-4,29q-1.5,10.4-9.52,15.78A20.82,20.82,0,0,1,346,144a20,20,0,0,1-14.37-6.08q-6.08-6.08-6.08-13.66,0-8,4-13,2-2.56,8.2-7.14.79-.88,21.19-15.91.89-8,1.85-15.54A26.29,26.29,0,0,1,349.14,75a21.39,21.39,0,0,1-5.91-.79Q328,69.56,328,40.29A136.35,136.35,0,0,1,331.12,12Q333.54,1.32,339.69.71Zm14.83,116.8,1.5-10.78q-9,6.81-9.75,7.42-6.34,5.05-6.42,9.2a8.57,8.57,0,0,0,.53,3,5.57,5.57,0,0,0,5.62,4,6.89,6.89,0,0,0,2.81-.54Q353.2,128,354.52,117.51Z"/><path d="M398.91,48.57a60.45,60.45,0,0,1,.35-6.35,62.14,62.14,0,0,1,9.52-26.89q9.34-14.28,22.48-14.28a21.1,21.1,0,0,1,9.87,2.2A6.22,6.22,0,0,1,446,1.06a5.45,5.45,0,0,1,2.2.26Q452,2.56,452,8.82q0,2.56-.88,11-2.73,25-2.73,31.12A17.43,17.43,0,0,0,450,58.54q2.47,5.29,6.52,5.29a8.51,8.51,0,0,0,1.67-.18q2.64-.53,7.58-4.06t7.76-3.53a4.42,4.42,0,0,1,2.38.79,5.43,5.43,0,0,1,2.56,4.67q-.27,4.58-7,9.52a29.07,29.07,0,0,1-17,5.64q-11.11-.09-16.4-11.2a32.89,32.89,0,0,1-2.82,3q-8.73,8.2-17.72,8.2a16.59,16.59,0,0,1-9.79-2.91Q398.91,67.27,398.91,48.57Zm38.79-29,.62-6a9,9,0,0,0-4.06-1A12.81,12.81,0,0,0,431,13q-8.2,2.29-13.84,15.16a57.67,57.67,0,0,0-5,23.19v.88Q412.4,63,417.6,63q2.73-.09,6.7-3a26,26,0,0,0,5.91-5.47q1.15-1.67,3.09-9.79A185.06,185.06,0,0,0,437.7,19.57Z"/><path d="M487.69,65.74a14.15,14.15,0,0,1-1.82,5.65q-2.51,4.26-6.32,4.25a4.76,4.76,0,0,1-1.82-.35q-4.33-1.85-4.33-9.34l7.43-55.63a22.45,22.45,0,0,1,.53-3Q482.84,0,488.08,0a8.91,8.91,0,0,1,2.18.26Q494,1.32,494,7.76q0,2.56-.27,5.82a4.13,4.13,0,0,1,.27-.44Q500.67,1.32,512.9,1.32a16.91,16.91,0,0,1,7.54,1.94q6,3.09,7.63,8.29Q534.41,2,545.61,1.94a13.51,13.51,0,0,1,8,2.65A12.22,12.22,0,0,1,559,15q0,4.24-.09,13-.18,9.64-.18,14.78,0,4,.18,6.9,1.06,13.89,8.46,13.89a10.27,10.27,0,0,0,1.85-.18q2.56-.62,7.49-4.16t7.76-3.54a4,4,0,0,1,2.2.7,5.62,5.62,0,0,1,2.73,5.17,3.92,3.92,0,0,1-.09.7q-.62,4.2-7.32,8.67-8.2,5.52-16.31,5.52a17.53,17.53,0,0,1-11.2-3.61q-9.44-7.57-9.43-33.18,0-1.5.09-4.84.18-4.87.18-8.41,0-9.29-2.12-9.47-1.76,0-4.14,2.74-6.17,7.17-13.22,26.46l-1.5,15.13a44.08,44.08,0,0,1-1.5,8.82Q521,76,515.81,76a5.84,5.84,0,0,1-2.65-.61q-3.79-1.75-3.79-7.28,0-5.35,2.47-19.22,3.35-19.2,3.35-26.28a13.57,13.57,0,0,0-.36-3.27,3.51,3.51,0,0,0-3.74-3,6.14,6.14,0,0,0-3.56,1.86Q501,24.36,492.94,47,487.69,61.79,487.69,65.74Z"/></g></g></svg>